<svg width="19" height="20" viewBox="0 0 19 20" fill="none" xmlns="http://www.w3.org/2000/svg">
<path d="M16.5 5.5V17C16.5 18.3807 15.3807 19.5 14 19.5H5C3.61929 19.5 2.5 18.3807 2.5 17V5.5H16.5Z" stroke="#E74A3B"/>
<path d="M1.5 3.5H17.5C18.0523 3.5 18.5 3.94772 18.5 4.5C18.5 5.05228 18.0523 5.5 17.5 5.5H1.5C0.947715 5.5 0.5 5.05228 0.5 4.5C0.5 3.94772 0.947715 3.5 1.5 3.5Z" stroke="#E74A3B"/>
<path d="M9.5 0.5C11.1569 0.5 12.5 1.84315 12.5 3.5H6.5C6.5 1.84315 7.84315 0.5 9.5 0.5Z" stroke="#E74A3B"/>
<rect x="6.53845" y="10.077" width="1.38462" height="6.92308" fill="#E74A3B"/>
<rect x="9.30774" y="10.077" width="1.38462" height="6.92308" fill="#E74A3B"/>
<rect x="12.0769" y="10.077" width="1.38462" height="6.92308" fill="#E74A3B"/>
</svg>
