<svg width="13" height="15" viewBox="0 0 13 15" fill="none" xmlns="http://www.w3.org/2000/svg">
<path d="M11.5 4.5V12C11.5 13.3807 10.3807 14.5 9 14.5H4C2.61929 14.5 1.5 13.3807 1.5 12V4.5H11.5Z" stroke="#B3B3B3"/>
<path d="M1.5 2.5H11.5C12.0523 2.5 12.5 2.94772 12.5 3.5C12.5 4.05228 12.0523 4.5 11.5 4.5H1.5C0.947715 4.5 0.5 4.05228 0.5 3.5C0.5 2.94772 0.947715 2.5 1.5 2.5Z" stroke="#B3B3B3"/>
<path d="M6.5 0.5C7.60457 0.5 8.5 1.39543 8.5 2.5H4.5C4.5 1.39543 5.39543 0.5 6.5 0.5Z" stroke="#B3B3B3"/>
<rect x="4" y="8" width="1" height="5" fill="#B3B3B3"/>
<rect x="6" y="8" width="1" height="5" fill="#B3B3B3"/>
<rect x="8" y="8" width="1" height="5" fill="#B3B3B3"/>
</svg>
