<svg width="19" height="19" viewBox="0 0 19 19" fill="none" xmlns="http://www.w3.org/2000/svg">
<circle cx="9.5" cy="9.5" r="9" stroke="#B3B3B3"/>
<circle cx="9.5" cy="9.5" r="1" fill="#B3B3B3" stroke="#B3B3B3"/>
<line x1="9.5" y1="16" x2="9.5" y2="10" stroke="#B3B3B3"/>
<line x1="9.64645" y1="9.47488" x2="12.4749" y2="6.64645" stroke="#B3B3B3"/>
<line x1="1" y1="9.5" x2="2" y2="9.5" stroke="#B3B3B3"/>
<line x1="17" y1="9.5" x2="18" y2="9.5" stroke="#B3B3B3"/>
<line x1="9" y1="17.5" x2="10" y2="17.5" stroke="#B3B3B3"/>
<line x1="4.35355" y1="15.6464" x2="5.06066" y2="16.3536" stroke="#B3B3B3"/>
<line x1="1.56006" y1="13.2482" x2="2.42608" y2="12.7482" stroke="#B3B3B3"/>
<line x1="9" y1="1.5" x2="10" y2="1.5" stroke="#B3B3B3"/>
<line x1="13.3196" y1="2.31766" x2="14.1856" y2="2.81766" stroke="#B3B3B3"/>
<line x1="2.44687" y1="5.66476" x2="2.94687" y2="4.79874" stroke="#B3B3B3"/>
<line x1="16.933" y1="13.25" x2="16.433" y2="14.116" stroke="#B3B3B3"/>
<line x1="16.6874" y1="5.31949" x2="17.1874" y2="6.18551" stroke="#B3B3B3"/>
<line x1="5.14115" y1="2.24921" x2="4.43404" y2="2.95632" stroke="#B3B3B3"/>
<line x1="14.116" y1="16.6178" x2="13.2499" y2="17.1178" stroke="#B3B3B3"/>
</svg>
