<svg width="20" height="20" viewBox="0 0 20 20" fill="none" xmlns="http://www.w3.org/2000/svg">
<circle cx="10" cy="10" r="9.5" stroke="#4E73DF"/>
<path d="M10.0001 8.92102C10.5959 8.9211 11.0792 9.40429 11.0792 10.0001C11.0791 10.5959 10.5959 11.0791 10.0001 11.0792C9.40429 11.0792 8.9211 10.5959 8.92102 10.0001C8.92102 9.40424 9.40424 8.92102 10.0001 8.92102Z" fill="#4E73DF" stroke="#4E73DF"/>
<line x1="10.0264" y1="16.8422" x2="10.0264" y2="10.5264" stroke="#4E73DF"/>
<line x1="10.1728" y1="9.99215" x2="13.1501" y2="7.01486" stroke="#4E73DF"/>
<line x1="1.05261" y1="10.0264" x2="2.10524" y2="10.0264" stroke="#4E73DF"/>
<line x1="17.8948" y1="10.0264" x2="18.9474" y2="10.0264" stroke="#4E73DF"/>
<line x1="9.47363" y1="18.4474" x2="10.5263" y2="18.4474" stroke="#4E73DF"/>
<line x1="4.56412" y1="16.4886" x2="5.30845" y2="17.2329" stroke="#4E73DF"/>
<line x1="1.65527" y1="13.9682" x2="2.56688" y2="13.4419" stroke="#4E73DF"/>
<line x1="9.47363" y1="1.60522" x2="10.5263" y2="1.60522" stroke="#4E73DF"/>
<line x1="14.0074" y1="2.4625" x2="14.9191" y2="2.98881" stroke="#4E73DF"/>
<line x1="2.59848" y1="5.97607" x2="3.1248" y2="5.06447" stroke="#4E73DF"/>
<line x1="17.8014" y1="13.9342" x2="17.2751" y2="14.8458" stroke="#4E73DF"/>
<line x1="17.5429" y1="5.61255" x2="18.0692" y2="6.52415" stroke="#4E73DF"/>
<line x1="5.3931" y1="2.34891" x2="4.64878" y2="3.09324" stroke="#4E73DF"/>
<line x1="14.8457" y1="17.4696" x2="13.9341" y2="17.9959" stroke="#4E73DF"/>
</svg>
